<?xml version="1.0" encoding="UTF-8" standalone="no"?>
<!-- Created with Inkscape (http://www.inkscape.org/) -->

<svg
   version="1.1"
   id="svg824"
   xml:space="preserve"
   width="461.55444"
   height="222.49396"
   viewBox="0 0 461.55444 222.49396"
   xmlns="http://www.w3.org/2000/svg"
   xmlns:svg="http://www.w3.org/2000/svg"><defs
     id="defs828"><clipPath
       clipPathUnits="userSpaceOnUse"
       id="clipPath840"><path
         d="M 0,0 H 720 V 405 H 0 Z"
         id="path838" /></clipPath></defs><g
     id="g830"
     transform="matrix(1.3333333,0,0,-1.3333333,-230.83518,386.88106)"><g
       id="g832" /><path
       d="m 469.6178,237.0393 v 0 c -6.1239,12.8144 -0.7003,28.167 12.1141,34.291 v 0 c 6.1536,2.9408 13.2235,3.3167 19.6543,1.0449 6.4308,-2.2719 11.6958,-7.0053 14.6366,-13.1589 v 0 c 6.124,-12.8144 0.7004,-28.167 -12.114,-34.291 v 0 c -12.8144,-6.124 -28.1669,-0.7004 -34.291,12.114 z"
       style="fill:#9558b2;fill-opacity:1;fill-rule:evenodd;stroke:none"
       id="path844" /><path
       d="m 489.0918,246.3347 v 0 c -0.9832,2.0639 -0.1072,4.5341 1.9568,5.5173 v 0 c 0.9911,0.4721 2.1291,0.5312 3.1638,0.1643 1.0347,-0.367 1.8813,-1.1299 2.3534,-2.121 v 0 c 0.9832,-2.0639 0.1072,-4.5341 -1.9567,-5.5173 v 0 c -2.0639,-0.9832 -4.534,-0.1072 -5.5173,1.9567 z"
       style="fill:#000000;fill-opacity:1;fill-rule:evenodd;stroke:none"
       id="path846" /><path
       d="m 182.0729,230.2225 v 0 c -10.3965,9.6753 -10.9811,25.9466 -1.3058,36.3431 v 0 c 4.6462,4.9925 11.0854,7.9349 17.9011,8.1798 6.8156,0.2449 13.4494,-2.2277 18.4419,-6.874 v 0 c 10.3965,-9.6753 10.9811,-25.9466 1.3059,-36.3431 v 0 c -9.6753,-10.3964 -25.9467,-10.9811 -36.3431,-1.3058 z"
       style="fill:#9558b2;fill-opacity:1;fill-rule:evenodd;stroke:none"
       id="path848" /><path
       d="m 196.7805,246.0115 v 0 c -1.6716,1.5595 -1.7625,4.1787 -0.2031,5.8503 v 0 c 0.7489,0.8027 1.786,1.275 2.8831,1.3131 1.0972,0.0381 2.1645,-0.3612 2.9672,-1.1101 v 0 c 1.6716,-1.5594 1.7625,-4.1787 0.203,-5.8503 v 0 c -1.5594,-1.6715 -4.1787,-1.7624 -5.8502,-0.203 z"
       style="fill:#000000;fill-opacity:1;fill-rule:evenodd;stroke:none"
       id="path850" /><path
       d="m 197.6919,130.931 v 0 c -10.3964,9.6753 -10.9811,25.9466 -1.3058,36.3431 v 0 c 4.6462,4.9925 11.0854,7.9349 17.9011,8.1798 6.8156,0.2449 13.4494,-2.2277 18.442,-6.874 v 0 c 10.3964,-9.6752 10.9811,-25.9466 1.3058,-36.343 v 0 c -9.6753,-10.3965 -25.9466,-10.9812 -36.3431,-1.3059 z"
       style="fill:#389826;fill-opacity:1;fill-rule:evenodd;stroke:none"
       id="path852" /><path
       d="m 212.3992,146.7203 v 0 c -1.6716,1.5595 -1.7625,4.1787 -0.2031,5.8503 v 0 c 0.7489,0.8027 1.786,1.2751 2.8831,1.3131 1.0972,0.0381 2.1645,-0.3612 2.9672,-1.1101 v 0 c 1.6716,-1.5594 1.7625,-4.1787 0.203,-5.8502 v 0 c -1.5594,-1.6716 -4.1787,-1.7625 -5.8502,-0.2031 z"
       style="fill:#000000;fill-opacity:1;fill-rule:evenodd;stroke:none"
       id="path854" /><path
       d="m 189.8879,180.5498 v 0 c -10.3964,9.6753 -10.9811,25.9467 -1.3058,36.3431 v 0 c 4.6462,4.9926 11.0854,7.9349 17.9011,8.1798 6.8156,0.2449 13.4494,-2.2277 18.442,-6.874 v 0 c 10.3964,-9.6752 10.9811,-25.9466 1.3058,-36.343 v 0 c -9.6753,-10.3965 -25.9466,-10.9811 -36.3431,-1.3059 z"
       style="fill:#4063d8;fill-opacity:1;fill-rule:evenodd;stroke:none"
       id="path856" /><path
       d="m 204.5899,196.339 v 0 c -1.6715,1.5594 -1.7624,4.1787 -0.203,5.8502 v 0 c 0.7489,0.8028 1.786,1.2751 2.8831,1.3132 1.0971,0.038 2.1645,-0.3613 2.9672,-1.1102 v 0 c 1.6715,-1.5594 1.7624,-4.1786 0.203,-5.8502 v 0 c -1.5595,-1.6716 -4.1787,-1.7625 -5.8503,-0.203 z"
       style="fill:#000000;fill-opacity:1;fill-rule:evenodd;stroke:none"
       id="path858" /><path
       d="m 230.9089,221.1721 v 0 c -10.3965,9.6753 -10.9811,25.9466 -1.3059,36.3431 v 0 c 4.6463,4.9925 11.0855,7.9349 17.9011,8.1798 6.8157,0.2449 13.4495,-2.2278 18.442,-6.874 v 0 c 10.3965,-9.6753 10.9811,-25.9466 1.3058,-36.3431 v 0 c -9.6752,-10.3964 -25.9466,-10.9811 -36.343,-1.3058 z"
       style="fill:#389826;fill-opacity:1;fill-rule:evenodd;stroke:none"
       id="path860" /><path
       d="m 245.6164,236.9628 v 0 c -1.6716,1.5594 -1.7625,4.1786 -0.203,5.8502 v 0 c 0.7488,0.8027 1.7859,1.2751 2.883,1.3131 1.0972,0.0381 2.1645,-0.3612 2.9672,-1.1101 v 0 c 1.6716,-1.5594 1.7625,-4.1787 0.203,-5.8502 v 0 c -1.5594,-1.6716 -4.1787,-1.7625 -5.8502,-0.203 z"
       style="fill:#000000;fill-opacity:1;fill-rule:evenodd;stroke:none"
       id="path862" /><path
       d="m 275.3863,244.8713 v 0 c -10.3964,9.6753 -10.9811,25.9466 -1.3058,36.3431 v 0 c 4.6462,4.9926 11.0855,7.9349 17.9011,8.1798 6.8157,0.2449 13.4494,-2.2277 18.442,-6.874 v 0 c 10.3964,-9.6752 10.9811,-25.9466 1.3058,-36.3431 v 0 c -9.6753,-10.3964 -25.9466,-10.9811 -36.3431,-1.3058 z"
       style="fill:#9558b2;fill-opacity:1;fill-rule:evenodd;stroke:none"
       id="path864" /><path
       d="m 290.0939,260.6603 v 0 c -1.6715,1.5595 -1.7624,4.1787 -0.203,5.8503 v 0 c 0.7489,0.8027 1.7859,1.2751 2.8831,1.3131 1.0971,0.0381 2.1644,-0.3612 2.9672,-1.1101 v 0 c 1.6715,-1.5594 1.7624,-4.1787 0.203,-5.8502 v 0 c -1.5595,-1.6716 -4.1787,-1.7625 -5.8503,-0.2031 z"
       style="fill:#000000;fill-opacity:1;fill-rule:evenodd;stroke:none"
       id="path866" /><path
       d="m 291.0054,145.5798 v 0 c -10.3965,9.6753 -10.9811,25.9467 -1.3059,36.3431 v 0 c 4.6463,4.9926 11.0855,7.9349 17.9011,8.1798 6.8157,0.2449 13.4494,-2.2277 18.442,-6.874 v 0 c 10.3965,-9.6752 10.9811,-25.9466 1.3058,-36.343 v 0 c -9.6752,-10.3965 -25.9466,-10.9811 -36.343,-1.3059 z"
       style="fill:#389826;fill-opacity:1;fill-rule:evenodd;stroke:none"
       id="path868" /><path
       d="m 305.7126,161.3692 v 0 c -1.6716,1.5594 -1.7625,4.1786 -0.203,5.8502 v 0 c 0.7489,0.8027 1.7859,1.2751 2.8831,1.3132 1.0971,0.038 2.1644,-0.3613 2.9672,-1.1102 v 0 c 1.6715,-1.5594 1.7624,-4.1786 0.203,-5.8502 v 0 c -1.5595,-1.6716 -4.1787,-1.7625 -5.8503,-0.203 z"
       style="fill:#000000;fill-opacity:1;fill-rule:evenodd;stroke:none"
       id="path870" /><path
       d="m 283.2014,195.1986 v 0 c -10.3965,9.6753 -10.9811,25.9467 -1.3058,36.3431 v 0 c 4.6462,4.9926 11.0854,7.9349 17.901,8.1798 6.8157,0.2449 13.4495,-2.2277 18.442,-6.874 v 0 c 10.3965,-9.6752 10.9811,-25.9466 1.3059,-36.343 v 0 c -9.6753,-10.3965 -25.9467,-10.9811 -36.3431,-1.3059 z"
       style="fill:#4063d8;fill-opacity:1;fill-rule:evenodd;stroke:none"
       id="path872" /><path
       d="m 297.9034,210.9878 v 0 c -1.6716,1.5594 -1.7625,4.1787 -0.203,5.8503 v 0 c 0.7488,0.8027 1.7859,1.275 2.8831,1.3131 1.0971,0.0381 2.1644,-0.3613 2.9671,-1.1101 v 0 c 1.6716,-1.5595 1.7625,-4.1787 0.203,-5.8503 v 0 c -1.5594,-1.6716 -4.1787,-1.7625 -5.8502,-0.203 z"
       style="fill:#000000;fill-opacity:1;fill-rule:evenodd;stroke:none"
       id="path874" /><path
       d="m 377.5643,145.8541 v 0 c -6.124,12.8144 -0.7004,28.167 12.114,34.291 v 0 c 6.1537,2.9408 13.2236,3.3167 19.6544,1.0449 6.4308,-2.2719 11.6957,-7.0052 14.6366,-13.1589 v 0 c 6.1239,-12.8144 0.7003,-28.167 -12.1141,-34.291 v 0 c -12.8143,-6.124 -28.1669,-0.7003 -34.2909,12.114 z"
       style="fill:#389826;fill-opacity:1;fill-rule:evenodd;stroke:none"
       id="path876" /><path
       d="m 397.0381,155.1499 v 0 c -0.9833,2.0639 -0.1072,4.5341 1.9567,5.5173 v 0 c 0.9911,0.4722 2.1292,0.5313 3.1639,0.1643 1.0347,-0.3669 1.8812,-1.1299 2.3533,-2.121 v 0 c 0.9833,-2.0639 0.1072,-4.5341 -1.9567,-5.5173 v 0 c -2.0638,-0.9832 -4.534,-0.1071 -5.5172,1.9567 z"
       style="fill:#000000;fill-opacity:1;fill-rule:evenodd;stroke:none"
       id="path878" /><g
       id="g880"
       transform="matrix(0.0019685,0,0,-0.0019685,0,405)"><path
         d="m 201695.3,126923.8 v 0 c -499.5,-1048.4 -54.4,-2303.3 994,-2802.8 v 0 c 503.5,-239.8 1081.7,-269.8 1607.3,-83.4 525.6,186.4 955.6,574 1195.5,1077.5 v 0 c 499.5,1048.4 54.5,2303.3 -994,2802.7 v 0 c -1048.4,499.5 -2303.3,54.5 -2802.8,-994 z"
         style="fill:none;stroke:#000000;stroke-width:1524;stroke-linecap:butt;stroke-linejoin:round;stroke-miterlimit:8;stroke-dasharray:none;stroke-opacity:1"
         id="path882" /></g><path
       d="m 384.9412,178.9229 v 0 c -6.1241,12.8144 -0.7004,28.167 12.1139,34.291 v 0 c 6.1537,2.9408 13.2236,3.3167 19.6544,1.0449 6.4308,-2.2718 11.6957,-7.0052 14.6366,-13.1589 v 0 c 6.124,-12.8144 0.7004,-28.167 -12.114,-34.291 v 0 c -12.8144,-6.124 -28.167,-0.7003 -34.2909,12.114 z"
       style="fill:#4063d8;fill-opacity:1;fill-rule:evenodd;stroke:none"
       id="path884" /><path
       d="m 404.41,188.2205 v 0 c -0.9833,2.0639 -0.1072,4.534 1.9567,5.5173 v 0 c 0.9911,0.4721 2.1292,0.5312 3.1639,0.1643 1.0346,-0.367 1.8812,-1.1299 2.3534,-2.121 v 0 c 0.9832,-2.0639 0.1071,-4.5341 -1.9568,-5.5173 v 0 c -2.0638,-0.9833 -4.534,-0.1072 -5.5172,1.9567 z"
       style="fill:#000000;fill-opacity:1;fill-rule:evenodd;stroke:none"
       id="path886" /><path
       d="m 423.3207,192.0387 v 0 c -6.124,12.8143 -0.7003,28.1669 12.114,34.2909 v 0 c 6.1537,2.9408 13.2236,3.3167 19.6544,1.0449 6.4308,-2.2718 11.6958,-7.0052 14.6366,-13.1589 v 0 c 6.124,-12.8144 0.7004,-28.167 -12.114,-34.291 v 0 c -12.8144,-6.1239 -28.167,-0.7003 -34.291,12.1141 z"
       style="fill:#389826;fill-opacity:1;fill-rule:evenodd;stroke:none"
       id="path888" /><path
       d="m 442.7953,201.3356 v 0 c -0.9833,2.0639 -0.1072,4.534 1.9567,5.5173 v 0 c 0.9911,0.4721 2.1292,0.5312 3.1639,0.1643 1.0347,-0.367 1.8812,-1.1299 2.3533,-2.121 v 0 c 0.9833,-2.0639 0.1072,-4.5341 -1.9566,-5.5173 v 0 c -2.0639,-0.9833 -4.5341,-0.1072 -5.5173,1.9567 z"
       style="fill:#000000;fill-opacity:1;fill-rule:evenodd;stroke:none"
       id="path890" /><path
       d="m 434.2437,244.9297 v 0 c -6.124,12.8144 -0.7004,28.167 12.114,34.291 v 0 c 6.1536,2.9408 13.2236,3.3167 19.6543,1.0449 6.4308,-2.2719 11.6958,-7.0052 14.6366,-13.1589 v 0 c 6.124,-12.8144 0.7004,-28.167 -12.114,-34.291 v 0 c -12.8143,-6.124 -28.167,-0.7004 -34.2909,12.114 z"
       style="fill:#4063d8;fill-opacity:1;fill-rule:evenodd;stroke:none"
       id="path892" /><path
       d="m 453.7125,254.2273 v 0 c -0.9833,2.0639 -0.1072,4.534 1.9567,5.5173 v 0 c 0.9911,0.4721 2.1292,0.5312 3.1639,0.1643 1.0347,-0.367 1.8812,-1.1299 2.3534,-2.1211 v 0 c 0.9832,-2.0638 0.1071,-4.534 -1.9568,-5.5172 v 0 c -2.0638,-0.9833 -4.534,-0.1072 -5.5172,1.9567 z"
       style="fill:#000000;fill-opacity:1;fill-rule:evenodd;stroke:none"
       id="path894" /><path
       d="m 392.3272,212.0388 v 0 c -6.124,12.8144 -0.7004,28.167 12.114,34.291 v 0 c 6.1537,2.9408 13.2236,3.3167 19.6543,1.0449 6.4309,-2.2719 11.6958,-7.0053 14.6366,-13.1589 v 0 c 6.124,-12.8144 0.7004,-28.167 -12.114,-34.291 v 0 c -12.8143,-6.124 -28.1669,-0.7004 -34.2909,12.114 z"
       style="fill:#9558b2;fill-opacity:1;fill-rule:evenodd;stroke:none"
       id="path896" /><path
       d="m 411.8011,221.3342 v 0 c -0.9832,2.0639 -0.1071,4.5341 1.9567,5.5173 v 0 c 0.9912,0.4721 2.1292,0.5313 3.1639,0.1643 1.0347,-0.3669 1.8813,-1.1299 2.3535,-2.121 v 0 c 0.9831,-2.0639 0.1071,-4.5341 -1.9568,-5.5173 v 0 c -2.0639,-0.9832 -4.534,-0.1072 -5.5173,1.9567 z"
       style="fill:#000000;fill-opacity:1;fill-rule:evenodd;stroke:none"
       id="path898" /><path
       d="m 401.3013,252.2765 v 0 c -6.124,12.8144 -0.7003,28.167 12.114,34.291 v 0 c 6.1537,2.9408 13.2236,3.3167 19.6544,1.0449 6.4308,-2.2718 11.6957,-7.0052 14.6366,-13.1589 v 0 c 6.124,-12.8144 0.7004,-28.167 -12.114,-34.291 v 0 c -12.8144,-6.124 -28.167,-0.7003 -34.291,12.114 z"
       style="fill:#389826;fill-opacity:1;fill-rule:evenodd;stroke:none"
       id="path900" /><path
       d="m 420.7751,261.5723 v 0 c -0.9832,2.0639 -0.1072,4.5341 1.9567,5.5173 v 0 c 0.9911,0.4722 2.1292,0.5313 3.1639,0.1643 1.0347,-0.3669 1.8812,-1.1299 2.3534,-2.121 v 0 c 0.9832,-2.0639 0.1072,-4.534 -1.9567,-5.5173 v 0 c -2.0639,-0.9832 -4.5341,-0.1071 -5.5173,1.9567 z"
       style="fill:#000000;fill-opacity:1;fill-rule:evenodd;stroke:none"
       id="path902" /><path
       d="m 453.7125,254.2273 c -62.5934,0 -93.9407,-1.2638 -125.1867,-2.5276 -31.2461,-1.2638 -62.3909,-2.5275 -124.7818,-2.5275"
       style="fill:#000000;fill-opacity:0;fill-rule:evenodd;stroke:none"
       id="path904" /><g
       id="g906"
       transform="matrix(0.0019685,0,0,-0.0019685,0,405)"><path
         d="m 230485.9,76592.54 c -31797.4,0 -47721.8,642 -63594.8,1284 -15873,642 -31694.6,1284 -63389.2,1284"
         style="fill:none;stroke:#cb3c33;stroke-width:1524;stroke-linecap:butt;stroke-linejoin:round;stroke-miterlimit:8;stroke-dasharray:none;stroke-opacity:1"
         id="path908" /></g><path
       d="m 489.0918,246.3347 c -59.2288,0 -88.8947,-1.5532 -118.4577,-3.1063 -29.563,-1.5531 -59.0231,-3.1063 -118.0462,-3.1063"
       style="fill:#000000;fill-opacity:0;fill-rule:evenodd;stroke:none"
       id="path910" /><g
       id="g912"
       transform="matrix(0.0019685,0,0,-0.0019685,0,405)"><path
         d="m 248458.6,80601.97 c -30088.2,0 -45158.5,789 -60176.5,1578 -15018,789 -29983.7,1578 -59967.5,1578"
         style="fill:none;stroke:#cb3c33;stroke-width:1524;stroke-linecap:butt;stroke-linejoin:round;stroke-miterlimit:8;stroke-dasharray:none;stroke-opacity:1"
         id="path914" /></g><path
       d="m 420.6108,264.7362 c 0,-2.4646 -29.1205,-4.5407 -53.5749,-4.9291 -24.4544,-0.3885 -44.2427,0.9107 -53.5749,2.0157 -9.3323,1.105 -8.2086,2.0158 -16.4172,2.0158"
       style="fill:#000000;fill-opacity:0;fill-rule:evenodd;stroke:none"
       id="path916" /><g
       id="g918"
       transform="matrix(0.0019685,0,0,-0.0019685,0,405)"><path
         d="m 213670.3,71253.99 c 0,1252.01 -14793.2,2306.67 -27216.1,2504.01 -12422.8,197.34 -22475.3,-462.67 -27216,-1024 -4740.8,-561.34 -4170,-1024.01 -8339.9,-1024.01"
         style="fill:none;stroke:#cb3c33;stroke-width:1524;stroke-linecap:butt;stroke-linejoin:round;stroke-miterlimit:8;stroke-dasharray:none;stroke-opacity:1"
         id="path920" /></g><path
       d="m 411.6368,224.4981 c 0,0.5394 -50.3504,3.8425 -100.7008,1.0788 -50.3504,-2.7638 -100.7008,-11.5945 -100.7008,-23.189"
       style="fill:#000000;fill-opacity:0;fill-rule:evenodd;stroke:none"
       id="path922" /><g
       id="g924"
       transform="matrix(0.0019685,0,0,-0.0019685,0,405)"><path
         d="m 209111.5,91694.96 c 0,-274 -25578,-1952.01 -51156,-548.01 -25578,1404 -51156,5890.01 -51156,11780.05"
         style="fill:none;stroke:#cb3c33;stroke-width:1524;stroke-linecap:butt;stroke-linejoin:round;stroke-miterlimit:8;stroke-dasharray:none;stroke-opacity:1"
         id="path926" /></g><path
       d="m 442.631,204.4995 c 0,4.8307 -68.8819,9.6614 -137.7638,9.6614"
       style="fill:#000000;fill-opacity:0;fill-rule:evenodd;stroke:none"
       id="path928" /><g
       id="g930"
       transform="matrix(0.0019685,0,0,-0.0019685,0,405)"><path
         d="m 224856.5,101854.3 c 0,-2454.03 -34992,-4908.03 -69984,-4908.03"
         style="fill:none;stroke:#cb3c33;stroke-width:1524;stroke-linecap:butt;stroke-linejoin:round;stroke-miterlimit:8;stroke-dasharray:none;stroke-opacity:1"
         id="path932" /></g><path
       d="m 404.2456,191.3844 c 0,-2.0466 -46.5472,0.7346 -93.0944,-4.0932 -46.5473,-4.8277 -93.0945,-17.2644 -93.0945,-34.5289"
       style="fill:#000000;fill-opacity:0;fill-rule:evenodd;stroke:none"
       id="path934" /><g
       id="g936"
       transform="matrix(0.0019685,0,0,-0.0019685,0,405)"><path
         d="m 205356.8,108516.7 c 0,1039.7 -23646,-373.1 -47292,2079.4 -23646,2452.5 -47292,8770.3 -47292,17540.6"
         style="fill:none;stroke:#cb3c33;stroke-width:1524;stroke-linecap:butt;stroke-linejoin:round;stroke-miterlimit:8;stroke-dasharray:none;stroke-opacity:1"
         id="path938" /></g><path
       d="m 396.8738,158.3138 c 0,3.1181 -42.0945,6.2363 -84.189,6.2363"
       style="fill:#000000;fill-opacity:0;fill-rule:evenodd;stroke:none"
       id="path940" /><g
       id="g942"
       transform="matrix(0.0019685,0,0,-0.0019685,0,405)"><path
         d="m 201611.9,125316.6 c 0,-1584 -21384,-3168 -42768,-3168"
         style="fill:none;stroke:#cb3c33;stroke-width:1524;stroke-linecap:butt;stroke-linejoin:round;stroke-miterlimit:8;stroke-dasharray:none;stroke-opacity:1"
         id="path944" /></g></g></svg>
